<svg width="30" height="31" viewBox="0 0 30 31" fill="none" xmlns="http://www.w3.org/2000/svg">
<path d="M14.9871 30.6771L6.48821 28.2391L4.59424 6.28821H25.4054L23.5095 28.2357L14.9871 30.6771Z" fill="#264DE4"/>
<path d="M21.8865 26.8381L23.5067 8.08301H15V28.811L21.8865 26.8381Z" fill="#2965F1"/>
<path d="M8.93604 16.2242L9.16954 18.9164H14.9998V16.2242H8.93604Z" fill="#EBEBEB"/>
<path d="M8.46729 10.7753L8.70413 13.4675H15.0003V10.7753H8.46729Z" fill="#EBEBEB"/>
<path d="M15 23.2162L14.9886 23.2193L12.087 22.4097L11.9015 20.2626H9.28613L9.65113 24.4897L14.988 26.0206L15 26.0172V23.2162Z" fill="#EBEBEB"/>
<path d="M9.49219 0.322876H12.6477V1.68644H10.8117V3.05001H12.6477V4.41358H9.49219V0.322876Z" fill="white"/>
<path d="M13.2788 0.322876H16.4343V1.50859H14.5984V1.74573H16.4343V4.47287H13.2788V3.22786H15.1147V2.99072H13.2788V0.322876Z" fill="white"/>
<path d="M17.0654 0.322876H20.2209V1.50859H18.385V1.74573H20.2209V4.47287H17.0654V3.22786H18.9014V2.99072H17.0654V0.322876Z" fill="white"/>
<path d="M21.0473 16.2243L21.5176 10.7753H14.9912V13.4675H18.6624L18.4253 16.2243H14.9912V18.9165H18.1994L17.897 22.408L14.9912 23.2184V26.0193L20.3323 24.4897L20.3715 24.0349L20.9837 16.9472L21.0473 16.2243Z" fill="white"/>
</svg>
