<svg width="1024" height="1024" viewBox="0 0 1024 1024" fill="none" xmlns="http://www.w3.org/2000/svg">
<rect width="1024" height="1024" rx="80" fill="#0F0F0F"/>
<path d="M228 796C228 717.576 291.576 654 370 654H512V796C512 874.424 448.424 938 370 938C291.576 938 228 874.424 228 796Z" fill="#24CB71"/>
<path d="M512 86V370H654C732.424 370 796 306.424 796 228C796 149.576 732.424 86 654 86H512Z" fill="#FF7237"/>
<path d="M652.817 654C731.242 654 794.817 590.424 794.817 512C794.817 433.576 731.242 370 652.817 370C574.393 370 510.817 433.576 510.817 512C510.817 590.424 574.393 654 652.817 654Z" fill="#00B6FF"/>
<path d="M228 228C228 306.424 291.576 370 370 370H512V86H370C291.576 86 228 149.576 228 228Z" fill="#FF3737"/>
<path d="M228 512C228 590.424 291.576 654 370 654H512V370H370C291.576 370 228 433.576 228 512Z" fill="#874FFF"/>
</svg>
