<svg width="32" height="31" viewBox="0 0 32 31" fill="none" xmlns="http://www.w3.org/2000/svg">
<path d="M27.0994 6.28821L25.0771 28.2356L15.9866 30.6771L6.92111 28.239L4.90088 6.28821H27.0994Z" fill="#E44D26"/>
<path d="M15.9995 28.8109L23.3451 26.8381L25.0733 8.08301H15.9995V28.8109Z" fill="#F16529"/>
<path d="M12.0689 13.4675H16.0002V10.7753H9.03174L9.09827 11.4975L9.7813 18.9164H16.0002V16.2243H12.3228L12.0689 13.4675Z" fill="#EBEBEB"/>
<path d="M12.6945 20.2626H9.90479L10.2942 24.4897L15.9868 26.0206L15.9996 26.0172V23.2162L15.9874 23.2193L12.8924 22.4097L12.6945 20.2626Z" fill="#EBEBEB"/>
<path d="M6.96631 0.322876H8.37858V1.67459H9.67048V0.322876H11.0828V4.41617H9.67054V3.0455H8.37864V4.41617H6.96638L6.96631 0.322876Z" fill="white"/>
<path d="M12.9401 1.68028H11.6968V0.322876H15.5963V1.68028H14.3525V4.41617H12.9401L12.9401 1.68028Z" fill="white"/>
<path d="M16.2148 0.322876H17.6874L18.5933 1.76114L19.4982 0.322876H20.9714V4.41617H19.5649V2.38731L18.5933 3.8427H18.569L17.5967 2.38731V4.41617H16.2148V0.322876Z" fill="white"/>
<path d="M21.6743 0.322876H23.087V3.06317H25.0731V4.41617H21.6743V0.322876Z" fill="white"/>
<path d="M15.9907 18.9164H19.4128L19.0902 22.4079L15.9907 23.2184V26.0193L21.6879 24.4897L21.7297 24.0348L22.3827 16.9472L22.4505 16.2242H15.9907V18.9164Z" fill="white"/>
<path d="M15.9907 13.4609V13.4675H22.7034L22.7592 12.8623L22.8858 11.4975L22.9522 10.7753H15.9907V13.4609Z" fill="white"/>
</svg>
