<svg width="25" height="25" viewBox="0 0 25 25" fill="none" xmlns="http://www.w3.org/2000/svg">
<rect x="4.08154" y="5.86731" width="16.0714" height="14.1582" fill="#55A7F8"/>
<path fill-rule="evenodd" clip-rule="evenodd" d="M5.20817 1.04163C4.1031 1.04163 3.04329 1.48061 2.26189 2.26201C1.48049 3.04342 1.0415 4.10322 1.0415 5.20829V19.7916C1.0415 20.8967 1.48049 21.9565 2.26189 22.7379C3.04329 23.5193 4.1031 23.9583 5.20817 23.9583H19.7915C20.8966 23.9583 21.9564 23.5193 22.7378 22.7379C23.5192 21.9565 23.9582 20.8967 23.9582 19.7916V5.20829C23.9582 4.10322 23.5192 3.04342 22.7378 2.26201C21.9564 1.48061 20.8966 1.04163 19.7915 1.04163H5.20817ZM5.729 7.29163H9.37484C10.3418 7.29163 11.2691 7.67574 11.9528 8.35947C12.6366 9.04319 13.0207 9.97052 13.0207 10.9375C13.0207 11.9044 12.6366 12.8317 11.9528 13.5155C11.2691 14.1992 10.3418 14.5833 9.37484 14.5833H7.81234V17.7083H5.729V7.29163ZM7.81234 12.5H9.37484C9.78924 12.5 10.1867 12.3353 10.4797 12.0423C10.7727 11.7493 10.9373 11.3519 10.9373 10.9375C10.9373 10.5231 10.7727 10.1256 10.4797 9.83261C10.1867 9.53958 9.78924 9.37496 9.37484 9.37496H7.81234V12.5ZM18.6717 12.1187C17.779 11.9177 16.8332 11.7593 16.1478 11.8104C15.8009 11.8354 15.3582 11.9437 15.804 12.302C16.1717 12.5958 16.6061 12.7802 17.0415 12.9635C17.4894 13.1531 17.9394 13.3437 18.3207 13.6573C18.853 14.0948 19.2707 14.7323 19.2707 15.625C19.2707 16.5156 18.8498 17.1979 18.179 17.6041C17.5863 17.9625 16.8707 18.0645 16.2509 18.0802C15.2488 18.1052 14.1446 17.9052 13.3217 17.7031V15.5489C14.08 15.7656 15.2571 16.0208 16.1988 15.9968C16.6884 15.9854 16.9769 15.8958 17.1082 15.8166C17.3165 15.6916 17.1269 15.3729 16.9988 15.2677C16.6321 14.9656 16.1915 14.7802 15.7488 14.5937C15.3113 14.4093 14.8717 14.2239 14.5009 13.927C13.9696 13.5 13.5415 12.8698 13.5415 11.9791C13.5415 11.2552 13.8436 10.6458 14.3957 10.2448C14.8873 9.89058 15.4832 9.76975 15.9925 9.73225C16.8519 9.66871 17.8436 9.81767 18.6717 9.98746V12.1187Z" fill="#071E34"/>
</svg>
